<?xml version="1.0" encoding="utf-8"?>
<!-- Generator: Adobe Illustrator 15.0.0, SVG Export Plug-In . SVG Version: 6.00 Build 0)  -->
<!DOCTYPE svg PUBLIC "-//W3C//DTD SVG 1.1//EN" "http://www.w3.org/Graphics/SVG/1.1/DTD/svg11.dtd">
<svg version="1.1" id="Layer_1" xmlns="http://www.w3.org/2000/svg" xmlns:xlink="http://www.w3.org/1999/xlink" x="0px" y="0px"
	 width="1412.202px" height="1417.322px" viewBox="0 0 1412.202 1417.322" enable-background="new 0 0 1412.202 1417.322"
	 xml:space="preserve">
<g>
	<path fill="#FFFFFF" d="M1000.723,779.128c0-2.361-0.648-4.027-1.947-4.994s-3.707-1.451-7.223-1.451h-1.26v12.305h1.26
		c3.691,0,6.143-0.428,7.354-1.289C1000.118,782.839,1000.723,781.316,1000.723,779.128z"/>
	<path fill="#FFFFFF" d="M994.768,678.966l-4.395,9.785h11.953l-4.395-9.785c-0.254-0.625-0.518-1.342-0.791-2.152
		s-0.547-1.715-0.82-2.711c-0.234,0.938-0.482,1.812-0.746,2.623S995.042,678.283,994.768,678.966z"/>
	<radialGradient id="SVGID_1_" cx="706.1011" cy="708.6606" r="707.382" gradientUnits="userSpaceOnUse">
		<stop  offset="0" style="stop-color:#FFFFFF"/>
		<stop  offset="0.5706" style="stop-color:#FFFFFF;stop-opacity:0.9632"/>
		<stop  offset="0.6313" style="stop-color:#FFFFFF;stop-opacity:0.8271"/>
		<stop  offset="1" style="stop-color:#FFFFFF;stop-opacity:0"/>
	</radialGradient>
	<path fill="url(#SVGID_1_)" d="M0,0v1417.322h1412.202V0H0z M1020.387,610.707h23.936v5.918h-16.963v10.752h16.963v6.123h-16.963
		v13.857h16.963v6.24h-23.936V610.707z M981.809,610.707h29.707v5.918h-11.338v36.973h-6.973v-36.973h-11.396V610.707z
		 M565.294,748.439c-5.18,12.309-12.729,23.287-22.645,32.938c-10.007,9.652-21.296,17.045-33.867,22.18
		c-12.574,5.133-25.766,7.703-39.578,7.703c-13.991,0-27.339-2.59-40.043-7.77c-12.707-5.18-23.929-12.551-33.668-22.113
		c-9.917-9.65-17.444-20.586-22.578-32.805c-5.136-12.219-7.703-25.322-7.703-39.312c0-13.9,2.567-27.004,7.703-39.312
		c5.134-12.307,12.661-23.33,22.578-33.07c9.915-9.65,21.161-17,33.734-22.047c12.571-5.047,25.898-7.57,39.977-7.57
		c13.989,0,27.247,2.523,39.777,7.57c12.528,5.047,23.75,12.396,33.668,22.047c9.915,9.828,17.465,20.918,22.645,33.27
		s7.77,25.391,7.77,39.113C573.063,723.072,570.474,736.132,565.294,748.439z M784.415,806.08l-21.516-96.023
		c-0.354-1.504-0.93-5.666-1.727-12.484c-0.709-5.666-1.328-10.359-1.859-14.078c-0.797,4.428-1.926,8.855-3.387,13.281
		c-1.461,4.428-3.299,8.943-5.512,13.547l-50.867,103.594l-50.867-105.719c-2.125-4.338-3.964-8.543-5.512-12.617
		c-1.55-4.072-2.901-8.102-4.051-12.086c-0.089,4.074-0.421,8.346-0.996,12.816c-0.577,4.473-1.44,9.143-2.59,14.012l-20.852,95.758
		h-29.086l45.953-202.672l57.375,122.719c0.884,1.949,2.235,5.18,4.051,9.695c1.813,4.516,4.005,10.094,6.574,16.734
		c1.859-5.578,4.781-12.66,8.765-21.25c1.062-2.301,1.859-4.072,2.391-5.312l56.047-122.586l47.016,202.672H784.415z
		 M940.352,794.99c-11.6,10.848-27.271,16.27-47.016,16.27c-16.557,0-30.127-3.809-40.707-11.422s-17.51-18.504-20.785-32.672
		l25.234-11.688c2.391,8.678,6.773,15.297,13.148,19.855c6.375,4.561,14.521,6.84,24.438,6.84c9.385,0,16.845-2.611,22.379-7.836
		c5.533-5.223,8.301-12.219,8.301-20.984c0-11.422-9.475-21.604-28.422-30.547c-2.656-1.328-4.693-2.301-6.109-2.922
		c-21.429-10.447-35.705-19.898-42.832-28.355c-7.127-8.455-10.691-18.793-10.691-31.012c0-15.848,5.379-28.688,16.137-38.516
		s24.857-14.742,42.301-14.742c14.344,0,26.342,2.768,35.992,8.301c9.65,5.535,16.336,13.48,20.055,23.84l-24.703,12.75
		c-3.896-6.109-8.168-10.58-12.816-13.414c-4.648-2.832-9.982-4.25-16.004-4.25c-8.5,0-15.252,2.215-20.254,6.641
		c-5.002,4.428-7.504,10.359-7.504,17.797c0,11.688,10.979,22.578,32.938,32.672c1.682,0.797,3.01,1.418,3.984,1.859
		c19.213,8.855,32.406,17.51,39.578,25.965c7.172,8.457,10.758,19.016,10.758,31.676C957.75,769.513,951.952,784.144,940.352,794.99
		z M981.809,720.625v-5.918h29.707v5.918h-11.338v36.973h-6.973v-36.973H981.809z M1004.913,809.597l-14.268-19.189h-0.791v19.189
		h-6.533v-42.891h9.727c2.852,0,5.064,0.188,6.637,0.557c1.572,0.371,2.914,0.986,4.027,1.846c1.328,1.037,2.354,2.373,3.076,4.014
		s1.084,3.439,1.084,5.391c0,3.439-0.83,6.129-2.49,8.072s-4.111,3.109-7.354,3.5l14.766,19.512H1004.913z M1009.651,705.597
		l-4.863-11.045h-16.992l-4.98,11.045h-7.324l20.771-44.59l20.742,44.59H1009.651z M1036.301,809.597h-6.973v-42.891h6.973V809.597z
		 M1044.323,720.625h-16.963v10.752h16.963v6.123h-16.963v13.857h16.963v6.24h-23.936v-42.891h23.936V720.625z M1046.989,668.625
		h-11.338v36.973h-6.973v-36.973h-11.396v-5.918h29.707V668.625z"/>
	<path fill="#FFFFFF" d="M519.274,657.595c-6.554-6.816-14.145-12.062-22.777-15.738c-8.633-3.674-17.73-5.512-27.293-5.512
		s-18.66,1.816-27.293,5.445c-8.633,3.631-16.315,8.898-23.043,15.805c-6.73,6.818-11.866,14.654-15.406,23.508
		c-3.542,8.855-5.312,18.24-5.312,28.156c0,9.828,1.77,19.125,5.312,27.891c3.54,8.766,8.676,16.602,15.406,23.508
		c6.728,6.906,14.387,12.176,22.977,15.805c8.587,3.631,17.708,5.445,27.359,5.445c9.473,0,18.481-1.814,27.027-5.445
		c8.543-3.629,16.224-8.898,23.043-15.805c6.728-6.906,11.887-14.764,15.473-23.574c3.586-8.809,5.379-18.084,5.379-27.824
		c0-9.828-1.793-19.168-5.379-28.023C531.161,672.382,526.002,664.501,519.274,657.595z"/>
</g>
</svg>
