<?xml version="1.0" encoding="UTF-8" standalone="no"?>
<svg width="1200px" height="1200px" viewBox="0 0 1200 1200" version="1.1" xmlns="http://www.w3.org/2000/svg" xmlns:xlink="http://www.w3.org/1999/xlink" xmlns:sketch="http://www.bohemiancoding.com/sketch/ns">
    <title>Untitled</title>
    <description>Created with Sketch (http://www.bohemiancoding.com/sketch)</description>
    <defs>
        <radialGradient cx="50.0000071%" cy="49.9999718%" fx="50.0000071%" fy="49.9999718%" r="41.5198654%" id="radialGradient-1" stop-color="#FFFFFF">
            <stop stop-color="#fff" offset="0%"></stop>
            <stop stop-opacity="0.9632" stop-color="#fff" offset="43.217875%"></stop>
            <stop stop-opacity="0.9271" stop-color="#fff" offset="68.4588599%"></stop>
            <stop stop-opacity="0.41" stop-color="#fff" offset="72.4957868%"></stop>
            <stop stop-opacity="0.22" stop-color="#fff" offset="81.039625%"></stop>
            <stop stop-opacity="0.06" stop-color="#fff" offset="89.7786322%"></stop>
            <stop stop-opacity="0" offset="100%"></stop>
        </radialGradient>
    </defs>
    <g id="Page-1" stroke="none" stroke-width="1" fill="none" fill-rule="evenodd" sketch:type="MSPage">
        <g id="oms_logo_04" sketch:type="MSLayerGroup" transform="translate(-100.000000, -100.000000)">
            <g id="Page-1" sketch:type="MSShapeGroup">
                <g id="oms_logo_01">
                    <g id="Group">
                        <path d="M992.218272,769.780663 C992.218272,767.447989 991.575779,765.801976 990.287819,764.846577 C988.999858,763.891179 986.612323,763.412985 983.126204,763.412985 L981.876912,763.412985 L981.876912,775.57036 L983.126204,775.57036 C986.785836,775.57036 989.216997,775.147495 990.417705,774.296824 C991.618414,773.447142 992.218272,771.942414 992.218272,769.780663 L992.218272,769.780663 L992.218272,769.780663 Z" id="Shape" fill="#FFFFFF"></path>
                        <path d="M986.313881,670.820325 L981.956232,680.487932 L993.807649,680.487932 L989.45,670.820325 C989.198159,670.202823 988.936402,669.494425 988.665722,668.694143 C988.395042,667.89386 988.123371,666.999718 987.852691,666.015667 C987.62068,666.942414 987.374788,667.805928 987.113031,668.607198 C986.851275,669.408469 986.585552,670.145519 986.313881,670.820325 L986.313881,670.820325 L986.313881,670.820325 Z" id="Shape" fill="#FFFFFF"></path>
                        <path d="M0,1400.31814 L1400.20028,1400.31814 L1400.20028,0 L0,0 L0,1400.31814 L0,1400.31814 Z M1011.71516,603.38024 L1035.44773,603.38024 L1035.44773,609.227241 L1018.6289,609.227241 L1018.6289,619.850247 L1035.44773,619.850247 L1035.44773,625.899788 L1018.6289,625.899788 L1018.6289,639.590543 L1035.44773,639.590543 L1035.44773,645.755681 L1011.71516,645.755681 L1011.71516,603.38024 L1011.71516,603.38024 Z M973.465014,603.38024 L1002.91955,603.38024 L1002.91955,609.227241 L991.677904,609.227241 L991.677904,645.756669 L984.764164,645.756669 L984.764164,609.227241 L973.465014,609.227241 L973.465014,603.38024 L973.465014,603.38024 Z M560.489802,739.459845 C555.353824,751.621171 547.86898,762.467466 538.037252,772.002682 C528.115297,781.538885 516.922238,788.84319 504.458074,793.916584 C491.990935,798.988003 478.911048,801.52717 465.216431,801.52717 C451.344334,801.52717 438.109773,798.968243 425.513739,793.850388 C412.914731,788.732534 401.788102,781.449965 392.13187,772.002682 C382.29915,762.468454 374.836119,751.663656 369.745751,739.591249 C364.653399,727.518843 362.108215,714.573042 362.108215,700.750882 C362.108215,687.017643 364.653399,674.070854 369.745751,661.910515 C374.836119,649.751164 382.29915,638.860409 392.13187,629.237262 C401.962606,619.703035 413.113031,612.441214 425.579178,607.454764 C438.043343,602.468313 451.257082,599.975582 465.216431,599.975582 C479.086544,599.975582 492.23187,602.468313 504.655382,607.454764 C517.076912,612.441214 528.203541,619.702047 538.037252,629.237262 C547.867989,638.947354 555.353824,649.904305 560.489802,662.108116 C565.625779,674.311927 568.193768,687.194495 568.193768,700.75187 C568.192776,714.397177 565.625779,727.300494 560.489802,739.459845 L560.489802,739.459845 L560.489802,739.459845 Z M777.748584,796.409315 L756.415439,701.53832 C756.064448,700.052364 755.493343,695.940296 754.703116,689.204093 C754.000142,683.606069 753.386402,678.969372 752.859915,675.294989 C752.069688,679.669866 750.950283,684.043754 749.5017,688.416655 C748.053116,692.791531 746.230737,697.252364 744.036544,701.801129 L693.601841,804.152294 L643.167139,699.701623 C641.060198,695.415667 639.236827,691.261115 637.701983,687.235992 C636.165156,683.212844 634.825637,679.231193 633.685411,675.294989 C633.597167,679.320113 633.267989,683.540861 632.697875,687.957234 C632.125779,692.37657 631.270113,696.990543 630.129887,701.801129 L609.455099,796.410303 L580.616289,796.410303 L626.178754,596.169795 L683.066147,717.416514 C683.942635,719.342131 685.282153,722.534368 687.08272,726.995201 C688.880312,731.457022 691.053683,736.968102 693.60085,743.52844 C695.444051,738.017361 698.341218,731.020325 702.29136,722.53338 C703.344334,720.259986 704.134561,718.510233 704.66204,717.285109 L760.23272,596.169795 L806.84915,796.410303 L777.748584,796.410303 L777.748584,796.409315 L777.748584,796.409315 Z M932.36034,785.452364 C920.858924,796.170219 905.321105,801.52717 885.743909,801.52717 C869.32762,801.52717 855.872946,797.763867 845.382861,790.242202 C834.892776,782.720536 828.021671,771.960198 824.774504,757.962174 L849.794051,746.414397 C852.164731,754.988285 856.50949,761.527876 862.830312,766.031193 C869.151133,770.537474 877.227904,772.789132 887.060623,772.789132 C896.365864,772.789132 903.763456,770.209457 909.249433,765.047142 C914.735411,759.886803 917.479887,752.974735 917.479887,744.314891 C917.479887,733.029922 908.085411,722.970078 889.299433,714.134368 C886.666006,712.822301 884.646317,711.860974 883.242351,711.247424 C861.996459,700.925759 847.840793,691.588144 840.774363,683.232604 C833.707932,674.87904 830.174221,664.665067 830.174221,652.592661 C830.174221,636.934792 835.507507,624.248836 846.174079,614.538744 C856.840652,604.828652 870.81983,599.973606 888.115581,599.973606 C902.337677,599.973606 914.233711,602.708398 923.8017,608.175018 C933.369688,613.643613 939.998867,621.493296 943.686261,631.729005 L919.193201,644.326041 C915.330312,638.290332 911.094618,633.872971 906.486119,631.072971 C901.87762,628.274947 896.588952,626.873959 890.61813,626.873959 C882.190368,626.873959 875.495751,629.062385 870.536261,633.435286 C865.576771,637.810162 863.096034,643.670007 863.096034,651.018772 C863.096034,662.566549 873.981728,673.3259 895.754108,683.2988 C897.421813,684.086239 898.738527,684.699788 899.704249,685.135498 C918.753966,693.884263 931.834844,702.435427 938.945892,710.788991 C946.056941,719.144531 949.612465,729.576853 949.612465,742.084968 C949.610482,760.281016 943.861756,774.736486 932.36034,785.452364 L932.36034,785.452364 L932.36034,785.452364 Z M973.465014,711.979534 L973.465014,706.132534 L1002.91955,706.132534 L1002.91955,711.979534 L991.677904,711.979534 L991.677904,748.508963 L984.764164,748.508963 L984.764164,711.979534 L973.465014,711.979534 L973.465014,711.979534 Z M996.372663,799.884121 L982.225921,780.925335 L981.441643,780.925335 L981.441643,799.884121 L974.964164,799.884121 L974.964164,757.507692 L984.608499,757.507692 C987.436261,757.507692 989.629462,757.693437 991.189093,758.05801 C992.747734,758.424559 994.078329,759.032181 995.18187,759.881863 C996.498584,760.906422 997.515864,762.226394 998.231728,763.847706 C998.947592,765.469019 999.306516,767.245448 999.306516,769.17403 C999.306516,772.571771 998.483569,775.229499 996.837677,777.149188 C995.191785,779.068878 992.761615,780.220889 989.546176,780.607198 L1004.18669,799.885109 L996.372663,799.885109 L996.372663,799.884121 L996.372663,799.884121 Z M1001.0704,697.131828 L996.248725,686.219337 L979.401133,686.219337 L974.463456,697.131828 L967.2017,697.131828 L987.796176,653.076782 L1008.3619,697.131828 L1001.0704,697.131828 L1001.0704,697.131828 Z M1027.49391,799.884121 L1020.58017,799.884121 L1020.58017,757.507692 L1027.49391,757.507692 L1027.49391,799.884121 L1027.49391,799.884121 Z M1035.44773,711.979534 L1018.6289,711.979534 L1018.6289,722.602541 L1035.44773,722.602541 L1035.44773,728.652082 L1018.6289,728.652082 L1018.6289,742.342837 L1035.44773,742.342837 L1035.44773,748.507975 L1011.71516,748.507975 L1011.71516,706.131546 L1035.44773,706.131546 L1035.44773,711.979534 L1035.44773,711.979534 Z M1038.09108,660.603387 L1026.84943,660.603387 L1026.84943,697.132816 L1019.93569,697.132816 L1019.93569,660.603387 L1008.63654,660.603387 L1008.63654,654.756387 L1038.09108,654.756387 L1038.09108,660.603387 L1038.09108,660.603387 Z" id="Shape" fill="url(#radialGradient-1)"></path>
                        <path d="M514.860907,649.705716 C508.362606,642.971489 500.836119,637.788426 492.277479,634.156528 C483.717847,630.526606 474.698159,628.710656 465.216431,628.710656 C455.734703,628.710656 446.715014,630.504869 438.155382,634.090332 C429.595751,637.67777 421.979037,642.881581 415.308215,649.705716 C408.635411,656.44192 403.543059,664.18391 400.033144,672.931687 C396.521246,681.680452 394.766289,690.952858 394.766289,700.749894 C394.766289,710.459986 396.521246,719.645448 400.033144,728.306281 C403.543059,736.967114 408.635411,744.709104 415.308215,751.532251 C421.979037,758.355399 429.572946,763.562174 438.089943,767.147636 C446.603966,770.735074 455.64745,772.527311 465.216431,772.527311 C474.608924,772.527311 483.540368,770.735074 492.013739,767.147636 C500.484136,763.562174 508.099858,758.356387 514.860907,751.532251 C521.531728,744.709104 526.646884,736.945378 530.202408,728.241073 C533.757932,719.537756 535.535694,710.37403 535.535694,700.750882 C535.535694,691.04079 533.757932,681.812844 530.202408,673.064079 C526.646884,664.315314 521.531728,656.528864 514.860907,649.705716 L514.860907,649.705716 L514.860907,649.705716 Z" id="Shape" fill="#FFFFFF"></path>
                    </g>
                </g>
            </g>
        </g>
    </g>
</svg>