<?xml version="1.0" encoding="UTF-8" standalone="no"?>
<svg width="1412px" height="1417px" viewBox="0 0 1412 1417" version="1.1" xmlns="http://www.w3.org/2000/svg" xmlns:xlink="http://www.w3.org/1999/xlink" xmlns:sketch="http://www.bohemiancoding.com/sketch/ns">
    <title>oms_logo_4</title>
    <description>Created with Sketch (http://www.bohemiancoding.com/sketch)</description>
    <defs>
        <radialGradient cx="50.0000071%" cy="49.9999718%" fx="50.0000071%" fy="49.9999718%" r="41.5198654%" id="radialGradient-1" stop-color="#FFFFFF">
            <stop offset="0%" stop-color="#fff"></stop>
            <stop stop-opacity="0.9632" stop-color="#fff" offset="43.217875%"></stop>
            <stop stop-opacity="0.9271" stop-color="#fff" offset="68.4588599%"></stop>
            <stop stop-opacity="0.41" stop-color="#fff" offset="73.4957868%"></stop>
            <stop stop-opacity="0.22" stop-color="#fff" offset="79.039625%"></stop>
            <stop stop-opacity="0.06" stop-color="#fff" offset="89.7786322%"></stop>
            <stop stop-opacity="0" offset="100%"></stop>
        </radialGradient>
    </defs>
    <g id="Page-1" stroke="none" stroke-width="1" fill="none" fill-rule="evenodd" sketch:type="MSPage">
        <g id="oms_logo_01" sketch:type="MSLayerGroup">
            <g id="Group" sketch:type="MSShapeGroup">
                <path d="M1000.723,779.128 C1000.723,776.767 1000.075,775.101 998.776,774.134 C997.477,773.167 995.069,772.683 991.553,772.683 L990.293,772.683 L990.293,784.988 L991.553,784.988 C995.244,784.988 997.696,784.56 998.907,783.699 C1000.118,782.839 1000.723,781.316 1000.723,779.128 L1000.723,779.128 Z" id="Shape" fill="#FFFFFF"></path>
                <path d="M994.768,678.966 L990.373,688.751 L1002.326,688.751 L997.931,678.966 C997.677,678.341 997.413,677.624 997.14,676.814 C996.867,676.004 996.593,675.099 996.32,674.103 C996.086,675.041 995.838,675.915 995.574,676.726 C995.31,677.537 995.042,678.283 994.768,678.966 L994.768,678.966 Z" id="Shape" fill="#FFFFFF"></path>
                <path d="M0,1417.322 L1412.202,1417.322 L1412.202,0 L0,0 L0,1417.322 Z M1020.387,610.707 L1044.323,610.707 L1044.323,616.625 L1027.36,616.625 L1027.36,627.377 L1044.323,627.377 L1044.323,633.5 L1027.36,633.5 L1027.36,647.357 L1044.323,647.357 L1044.323,653.597 L1020.387,653.597 L1020.387,610.707 L1020.387,610.707 Z M981.809,610.707 L1011.516,610.707 L1011.516,616.625 L1000.178,616.625 L1000.178,653.598 L993.205,653.598 L993.205,616.625 L981.809,616.625 L981.809,610.707 L981.809,610.707 Z M565.294,748.439 C560.114,760.748 552.565,771.726 542.649,781.377 C532.642,791.029 521.353,798.422 508.782,803.557 C496.208,808.69 483.016,811.26 469.204,811.26 C455.213,811.26 441.865,808.67 429.161,803.49 C416.454,798.31 405.232,790.939 395.493,781.377 C385.576,771.727 378.049,760.791 372.915,748.572 C367.779,736.353 365.212,723.25 365.212,709.26 C365.212,695.36 367.779,682.256 372.915,669.948 C378.049,657.641 385.576,646.618 395.493,636.878 C405.408,627.228 416.654,619.878 429.227,614.831 C441.798,609.784 455.125,607.261 469.204,607.261 C483.193,607.261 496.451,609.784 508.981,614.831 C521.509,619.878 532.731,627.227 542.649,636.878 C552.564,646.706 560.114,657.796 565.294,670.148 C570.474,682.5 573.064,695.539 573.064,709.261 C573.063,723.072 570.474,736.132 565.294,748.439 L565.294,748.439 Z M784.415,806.08 L762.899,710.057 C762.545,708.553 761.969,704.391 761.172,697.573 C760.463,691.907 759.844,687.214 759.313,683.495 C758.516,687.923 757.387,692.35 755.926,696.776 C754.465,701.204 752.627,705.719 750.414,710.323 L699.547,813.917 L648.68,708.198 C646.555,703.86 644.716,699.655 643.168,695.581 C641.618,691.509 640.267,687.479 639.117,683.495 C639.028,687.569 638.696,691.841 638.121,696.311 C637.544,700.784 636.681,705.454 635.531,710.323 L614.679,806.081 L585.593,806.081 L631.546,603.409 L688.921,726.128 C689.805,728.077 691.156,731.308 692.972,735.823 C694.785,740.339 696.977,745.917 699.546,752.557 C701.405,746.979 704.327,739.897 708.311,731.307 C709.373,729.006 710.17,727.235 710.702,725.995 L766.749,603.409 L813.765,806.081 L784.415,806.081 L784.415,806.08 Z M940.352,794.99 C928.752,805.838 913.081,811.26 893.336,811.26 C876.779,811.26 863.209,807.451 852.629,799.838 C842.049,792.225 835.119,781.334 831.844,767.166 L857.078,755.478 C859.469,764.156 863.851,770.775 870.226,775.333 C876.601,779.894 884.747,782.173 894.664,782.173 C904.049,782.173 911.51,779.562 917.043,774.337 C922.576,769.114 925.344,762.118 925.344,753.353 C925.344,741.931 915.869,731.749 896.922,722.806 C894.266,721.478 892.229,720.505 890.813,719.884 C869.385,709.437 855.108,699.986 847.981,691.529 C840.854,683.074 837.29,672.736 837.29,660.517 C837.29,644.669 842.669,631.829 853.427,622.001 C864.185,612.173 878.284,607.259 895.728,607.259 C910.072,607.259 922.07,610.027 931.72,615.56 C941.37,621.095 948.056,629.04 951.775,639.4 L927.072,652.15 C923.176,646.041 918.904,641.57 914.256,638.736 C909.608,635.904 904.274,634.486 898.252,634.486 C889.752,634.486 883,636.701 877.998,641.127 C872.996,645.555 870.494,651.486 870.494,658.924 C870.494,670.612 881.473,681.502 903.432,691.596 C905.114,692.393 906.442,693.014 907.416,693.455 C926.629,702.31 939.822,710.965 946.994,719.42 C954.166,727.877 957.752,738.436 957.752,751.096 C957.75,769.513 951.952,784.144 940.352,794.99 L940.352,794.99 Z M981.809,720.625 L981.809,714.707 L1011.516,714.707 L1011.516,720.625 L1000.178,720.625 L1000.178,757.598 L993.205,757.598 L993.205,720.625 L981.809,720.625 L981.809,720.625 Z M1004.913,809.597 L990.645,790.408 L989.854,790.408 L989.854,809.597 L983.321,809.597 L983.321,766.706 L993.048,766.706 C995.9,766.706 998.112,766.894 999.685,767.263 C1001.257,767.634 1002.599,768.249 1003.712,769.109 C1005.04,770.146 1006.066,771.482 1006.788,773.123 C1007.51,774.764 1007.872,776.562 1007.872,778.514 C1007.872,781.953 1007.042,784.643 1005.382,786.586 C1003.722,788.529 1001.271,789.695 998.028,790.086 L1012.794,809.598 L1004.913,809.598 L1004.913,809.597 Z M1009.651,705.597 L1004.788,694.552 L987.796,694.552 L982.816,705.597 L975.492,705.597 L996.263,661.007 L1017.005,705.597 L1009.651,705.597 L1009.651,705.597 Z M1036.301,809.597 L1029.328,809.597 L1029.328,766.706 L1036.301,766.706 L1036.301,809.597 L1036.301,809.597 Z M1044.323,720.625 L1027.36,720.625 L1027.36,731.377 L1044.323,731.377 L1044.323,737.5 L1027.36,737.5 L1027.36,751.357 L1044.323,751.357 L1044.323,757.597 L1020.387,757.597 L1020.387,714.706 L1044.323,714.706 L1044.323,720.625 L1044.323,720.625 Z M1046.989,668.625 L1035.651,668.625 L1035.651,705.598 L1028.678,705.598 L1028.678,668.625 L1017.282,668.625 L1017.282,662.707 L1046.989,662.707 L1046.989,668.625 L1046.989,668.625 Z" id="Shape" fill="url(#radialGradient-1)"></path>
                <path d="M519.274,657.595 C512.72,650.779 505.129,645.533 496.497,641.857 C487.864,638.183 478.767,636.345 469.204,636.345 C459.641,636.345 450.544,638.161 441.911,641.79 C433.278,645.421 425.596,650.688 418.868,657.595 C412.138,664.413 407.002,672.249 403.462,681.103 C399.92,689.958 398.15,699.343 398.15,709.259 C398.15,719.087 399.92,728.384 403.462,737.15 C407.002,745.916 412.138,753.752 418.868,760.658 C425.596,767.564 433.255,772.834 441.845,776.463 C450.432,780.094 459.553,781.908 469.204,781.908 C478.677,781.908 487.685,780.094 496.231,776.463 C504.774,772.834 512.455,767.565 519.274,760.658 C526.002,753.752 531.161,745.894 534.747,737.084 C538.333,728.275 540.126,719 540.126,709.26 C540.126,699.432 538.333,690.092 534.747,681.237 C531.161,672.382 526.002,664.501 519.274,657.595 L519.274,657.595 Z" id="Shape" fill="#FFFFFF"></path>
            </g>
        </g>
    </g>
</svg>